<svg width="20" height="20" viewBox="0 0 20 20" fill="none" xmlns="http://www.w3.org/2000/svg">
  <path
    d="M4.69705 18.3333H2.66675C2.11446 18.3333 1.66675 17.8856 1.66675 17.3333V8.08334C1.66675 7.53105 2.11446 7.08334 2.66675 7.08334H4.69705M4.69705 18.3333H6.72735C7.27964 18.3333 7.72735 17.8856 7.72735 17.3333V15.5833C7.72735 15.0311 8.17507 14.5833 8.72735 14.5833H11.2728C11.8251 14.5833 12.2728 15.0311 12.2728 15.5833V18.3333M4.69705 18.3333V12.7083V11.6667M15.3031 5.00001V2.66667C15.3031 2.11439 14.8554 1.66667 14.3031 1.66667H5.69705C5.14477 1.66667 4.69705 2.11439 4.69705 2.66667V7.08334M4.69705 7.08334V9.16667M12.2728 18.3333H10.0001M12.2728 18.3333H15.3031M15.3031 18.3333H17.3334C17.8857 18.3333 18.3334 17.8856 18.3334 17.3333V7.66667C18.3334 7.11439 17.8857 6.66667 17.3334 6.66667H16.3031C15.7508 6.66667 15.3031 7.11439 15.3031 7.66667V9.16667M15.3031 18.3333V11.6667M15.3031 9.16667H16.4395M15.3031 9.16667V11.6667M15.3031 11.6667H16.4395M4.69705 9.16667H3.56069M4.69705 9.16667V11.6667M4.69705 11.6667H3.56069"
    stroke="#0E0E0F" stroke-linecap="round" />
  <path d="M6.96973 4.375H13.0303" stroke="#0E0E0F" stroke-linecap="round" />
  <path d="M6.96973 6.875H13.0303" stroke="#0E0E0F" stroke-linecap="round" />
  <path d="M6.96973 9.375H13.0303" stroke="#0E0E0F" stroke-linecap="round" />
  <path d="M6.96973 11.875H13.0303" stroke="#0E0E0F" stroke-linecap="round" />
</svg>
