<svg width="24" height="24" viewBox="0 0 24 24" fill="none" xmlns="http://www.w3.org/2000/svg">
<g clip-path="url(#clip0_18_1586)">
<path d="M3.73005 22.455L4.07054 21.7868H4.07054L3.73005 22.455ZM1.54497 20.27L2.21322 19.9295L1.54497 20.27ZM22.455 20.27L21.7868 19.9295L22.455 20.27ZM20.27 22.455L19.9295 21.7868L20.27 22.455ZM20.27 1.54497L19.9295 2.21322L20.27 1.54497ZM22.455 3.73005L21.7868 4.07054V4.07054L22.455 3.73005ZM3.73005 1.54497L4.07054 2.21322L4.07054 2.21322L3.73005 1.54497ZM1.54497 3.73005L2.21322 4.07054L2.21322 4.07054L1.54497 3.73005ZM11.25 18C11.25 18.4142 11.5858 18.75 12 18.75C12.4142 18.75 12.75 18.4142 12.75 18H11.25ZM12.75 6C12.75 5.58579 12.4142 5.25 12 5.25C11.5858 5.25 11.25 5.58579 11.25 6H12.75ZM6.25 18C6.25 18.4142 6.58579 18.75 7 18.75C7.41421 18.75 7.75 18.4142 7.75 18H6.25ZM7.75 10C7.75 9.58579 7.41421 9.25 7 9.25C6.58579 9.25 6.25 9.58579 6.25 10H7.75ZM16.25 18C16.25 18.4142 16.5858 18.75 17 18.75C17.4142 18.75 17.75 18.4142 17.75 18H16.25ZM17.75 14C17.75 13.5858 17.4142 13.25 17 13.25C16.5858 13.25 16.25 13.5858 16.25 14H17.75ZM9 1.75H15V0.25H9V1.75ZM22.25 9V15H23.75V9H22.25ZM15 22.25H9V23.75H15V22.25ZM1.75 15V9H0.25V15H1.75ZM9 22.25C7.58749 22.25 6.57322 22.2494 5.77708 22.1844C4.9897 22.12 4.48197 21.9964 4.07054 21.7868L3.38955 23.1233C4.04768 23.4586 4.77479 23.6075 5.65494 23.6794C6.52632 23.7506 7.61224 23.75 9 23.75V22.25ZM0.25 15C0.25 16.3878 0.249417 17.4737 0.320612 18.3451C0.392522 19.2252 0.541378 19.9523 0.876712 20.6104L2.21322 19.9295C2.00359 19.518 1.87996 19.0103 1.81563 18.2229C1.75058 17.4268 1.75 16.4125 1.75 15H0.25ZM4.07054 21.7868C3.27085 21.3793 2.62068 20.7291 2.21322 19.9295L0.876712 20.6104C1.42798 21.6924 2.30762 22.572 3.38955 23.1233L4.07054 21.7868ZM22.25 15C22.25 16.4125 22.2494 17.4268 22.1844 18.2229C22.12 19.0103 21.9964 19.518 21.7868 19.9295L23.1233 20.6104C23.4586 19.9523 23.6075 19.2252 23.6794 18.3451C23.7506 17.4737 23.75 16.3878 23.75 15H22.25ZM15 23.75C16.3878 23.75 17.4737 23.7506 18.3451 23.6794C19.2252 23.6075 19.9523 23.4586 20.6104 23.1233L19.9295 21.7868C19.518 21.9964 19.0103 22.12 18.2229 22.1844C17.4268 22.2494 16.4125 22.25 15 22.25V23.75ZM21.7868 19.9295C21.3793 20.7291 20.7291 21.3793 19.9295 21.7868L20.6104 23.1233C21.6924 22.572 22.572 21.6924 23.1233 20.6104L21.7868 19.9295ZM15 1.75C16.4125 1.75 17.4268 1.75058 18.2229 1.81563C19.0103 1.87996 19.518 2.00359 19.9295 2.21322L20.6104 0.876712C19.9523 0.541378 19.2252 0.392522 18.3451 0.320612C17.4737 0.249417 16.3878 0.25 15 0.25V1.75ZM23.75 9C23.75 7.61224 23.7506 6.52632 23.6794 5.65494C23.6075 4.77479 23.4586 4.04768 23.1233 3.38955L21.7868 4.07054C21.9964 4.48197 22.12 4.9897 22.1844 5.77708C22.2494 6.57322 22.25 7.58749 22.25 9H23.75ZM19.9295 2.21322C20.7291 2.62068 21.3793 3.27085 21.7868 4.07054L23.1233 3.38955C22.572 2.30762 21.6924 1.42798 20.6104 0.876712L19.9295 2.21322ZM9 0.25C7.61224 0.25 6.52632 0.249417 5.65494 0.320612C4.77479 0.392522 4.04768 0.541378 3.38955 0.876713L4.07054 2.21322C4.48197 2.00359 4.9897 1.87996 5.77708 1.81563C6.57322 1.75058 7.58749 1.75 9 1.75V0.25ZM1.75 9C1.75 7.58749 1.75058 6.57322 1.81563 5.77708C1.87996 4.9897 2.00359 4.48197 2.21322 4.07054L0.876713 3.38955C0.541378 4.04768 0.392522 4.77479 0.320612 5.65494C0.249417 6.52632 0.25 7.61224 0.25 9H1.75ZM3.38955 0.876712C2.30762 1.42798 1.42798 2.30762 0.876712 3.38955L2.21322 4.07054C2.62068 3.27085 3.27085 2.62068 4.07054 2.21322L3.38955 0.876712ZM12.75 18V6H11.25V18H12.75ZM7.75 18L7.75 10H6.25L6.25 18H7.75ZM17.75 18V14H16.25V18H17.75Z" fill="#0E0E0F"/>
</g>
<defs>
<clipPath id="clip0_18_1586">
<rect width="24" height="24" fill="white"/>
</clipPath>
</defs>
</svg>
