<svg width="24" height="24" viewBox="0 0 24 24" fill="none" xmlns="http://www.w3.org/2000/svg">
<path d="M14.6387 1.7959V6.3172C14.6387 6.61698 14.7578 6.90449 14.9698 7.11646C15.1817 7.32844 15.4692 7.44753 15.769 7.44753H20.2903" stroke="#0E0E0F" stroke-width="1.5" stroke-linecap="round" stroke-linejoin="round"/>
<path d="M17.9628 22.4077H6.32714C5.70995 22.4077 5.11803 22.1664 4.6816 21.7369C4.24518 21.3074 4 20.7249 4 20.1175V4.0861C4 3.4787 4.24518 2.89618 4.6816 2.46668C5.11803 2.03719 5.70995 1.7959 6.32714 1.7959H14.4721L20.29 7.5214V20.1175C20.29 20.7249 20.0448 21.3074 19.6084 21.7369C19.172 22.1664 18.58 22.4077 17.9628 22.4077Z" stroke="#0E0E0F" stroke-width="1.5" stroke-linecap="round" stroke-linejoin="round"/>
<path d="M8.65442 14.4263L10.9816 16.7534L15.6358 12.0991" stroke="#0E0E0F" stroke-width="1.5" stroke-linecap="round" stroke-linejoin="round"/>
</svg>
