<svg width="24" height="24" viewBox="0 0 24 24" fill="none" xmlns="http://www.w3.org/2000/svg">
<path d="M3 16V16.2C3 17.8802 3 18.7202 3.32698 19.362C3.6146 19.9265 4.07354 20.3854 4.63803 20.673C5.27976 21 6.11984 21 7.8 21H16.2C17.8802 21 18.7202 21 19.362 20.673C19.9265 20.3854 20.3854 19.9265 20.673 19.362C21 18.7202 21 17.8802 21 16.2V16" stroke="#0E0E0F" stroke-width="1.5" stroke-linecap="round"/>
<path d="M12.75 3.41421C12.75 3 12.4142 2.66421 12 2.66421C11.5858 2.66421 11.25 3 11.25 3.41421H12.75ZM11.25 14.4142C11.25 14.8284 11.5858 15.1642 12 15.1642C12.4142 15.1642 12.75 14.8284 12.75 14.4142L11.25 14.4142ZM8.53033 11.8839C8.23744 11.591 7.76256 11.591 7.46967 11.8839C7.17678 12.1768 7.17678 12.6516 7.46967 12.9445L8.53033 11.8839ZM11.2929 15.7071L10.7626 16.2374V16.2374L11.2929 15.7071ZM12.7071 15.7071L12.1768 15.1768L12.1768 15.1768L12.7071 15.7071ZM16.5303 12.9445C16.8232 12.6517 16.8232 12.1768 16.5303 11.8839C16.2374 11.591 15.7626 11.591 15.4697 11.8839L16.5303 12.9445ZM11.25 3.41421L11.25 14.4142L12.75 14.4142L12.75 3.41421H11.25ZM7.46967 12.9445L10.7626 16.2374L11.8232 15.1768L8.53033 11.8839L7.46967 12.9445ZM13.2374 16.2374L16.5303 12.9445L15.4697 11.8839L12.1768 15.1768L13.2374 16.2374ZM10.7626 16.2374C11.446 16.9209 12.554 16.9209 13.2374 16.2374L12.1768 15.1768C12.0791 15.2744 11.9209 15.2744 11.8232 15.1768L10.7626 16.2374Z" fill="#0E0E0F"/>
</svg>
