<svg width="24" height="24" viewBox="0 0 24 24" fill="none" xmlns="http://www.w3.org/2000/svg">
<path d="M9.37506 11.6248L9.37506 12.3748M8.62506 11.6248V12.3748M9.37506 4.62476L9.37506 5.37476M8.62506 4.62476V5.37476M9.37506 18.6248L9.37506 19.3748M8.62506 18.6248V19.3748M9 13C8.44772 13 8 12.5523 8 12C8 11.4477 8.44772 11 9 11C9.55228 11 10 11.4477 10 12C10 12.5523 9.55228 13 9 13ZM9 6C8.44772 6 8 5.55229 8 5C8 4.44772 8.44772 4 9 4C9.55228 4 10 4.44772 10 5C10 5.55229 9.55228 6 9 6ZM9 20C8.44772 20 8 19.5523 8 19C8 18.4477 8.44772 18 9 18C9.55228 18 10 18.4477 10 19C10 19.5523 9.55228 20 9 20Z" stroke="#0E0E0F" stroke-width="1.5" stroke-linecap="round"/>
<path d="M14.3751 11.6248L14.3751 12.3748M13.6251 11.6248V12.3748M14.3751 4.62476L14.3751 5.37476M13.6251 4.62476V5.37476M14.3751 18.6248L14.3751 19.3748M13.6251 18.6248V19.3748M14 13C13.4477 13 13 12.5523 13 12C13 11.4477 13.4477 11 14 11C14.5523 11 15 11.4477 15 12C15 12.5523 14.5523 13 14 13ZM14 6C13.4477 6 13 5.55229 13 5C13 4.44772 13.4477 4 14 4C14.5523 4 15 4.44772 15 5C15 5.55229 14.5523 6 14 6ZM14 20C13.4477 20 13 19.5523 13 19C13 18.4477 13.4477 18 14 18C14.5523 18 15 18.4477 15 19C15 19.5523 14.5523 20 14 20Z" stroke="#0E0E0F" stroke-width="1.5" stroke-linecap="round"/>
</svg>
