<svg width="24" height="24" viewBox="0 0 24 24" fill="none" xmlns="http://www.w3.org/2000/svg">
<path d="M8.36682 19.3598L8.94299 19.84L8.36682 19.3598ZM11.2318 15.9219L11.8079 16.402L11.2318 15.9219ZM12.7682 15.9219L12.1921 16.402V16.402L12.7682 15.9219ZM15.6332 19.3598L16.2093 18.8797V18.8797L15.6332 19.3598ZM18 17.25C17.5858 17.25 17.25 17.5858 17.25 18C17.25 18.4142 17.5858 18.75 18 18.75V17.25ZM6 18.75C6.41421 18.75 6.75 18.4142 6.75 18C6.75 17.5858 6.41421 17.25 6 17.25V18.75ZM2.21799 16.908L2.88624 16.5675L2.88624 16.5675L2.21799 16.908ZM3.09202 17.782L3.43251 17.1138H3.43251L3.09202 17.782ZM21.782 16.908L21.1138 16.5675V16.5675L21.782 16.908ZM20.908 17.782L21.2485 18.4503L20.908 17.782ZM20.908 3.21799L21.2485 2.54973L21.2485 2.54973L20.908 3.21799ZM21.782 4.09202L21.1138 4.43251V4.43251L21.782 4.09202ZM3.09202 3.21799L2.75153 2.54973L2.75153 2.54973L3.09202 3.21799ZM2.21799 4.09202L1.54973 3.75153L1.54973 3.75153L2.21799 4.09202ZM8.94299 19.84L11.8079 16.402L10.6556 15.4417L7.79065 18.8797L8.94299 19.84ZM12.1921 16.402L15.057 19.84L16.2093 18.8797L13.3444 15.4417L12.1921 16.402ZM14.865 20.25H9.13504V21.75H14.865V20.25ZM15.057 19.84C15.1927 20.0028 15.0769 20.25 14.865 20.25V21.75C16.3487 21.75 17.1592 20.0195 16.2093 18.8797L15.057 19.84ZM11.8079 16.402C11.9079 16.2821 12.0921 16.2821 12.1921 16.402L13.3444 15.4417C12.6447 14.6022 11.3553 14.6022 10.6556 15.4417L11.8079 16.402ZM7.79065 18.8797C6.8408 20.0195 7.65132 21.75 9.13504 21.75V20.25C8.92308 20.25 8.80729 20.0028 8.94299 19.84L7.79065 18.8797ZM5.2 3.75H18.8V2.25H5.2V3.75ZM21.25 6.2V14.8H22.75V6.2H21.25ZM2.75 14.8V6.2H1.25V14.8H2.75ZM18.8 17.25H18V18.75H18.8V17.25ZM6 17.25H5.2V18.75H6V17.25ZM1.25 14.8C1.25 15.3477 1.24942 15.8035 1.27974 16.1747C1.31078 16.5546 1.37789 16.9112 1.54973 17.2485L2.88624 16.5675C2.8401 16.4769 2.79822 16.3396 2.77476 16.0525C2.75058 15.7566 2.75 15.3724 2.75 14.8H1.25ZM5.2 17.25C4.62757 17.25 4.24336 17.2494 3.94748 17.2252C3.66035 17.2018 3.52307 17.1599 3.43251 17.1138L2.75153 18.4503C3.08879 18.6221 3.44545 18.6892 3.82533 18.7203C4.19646 18.7506 4.65232 18.75 5.2 18.75V17.25ZM1.54973 17.2485C1.81338 17.7659 2.23408 18.1866 2.75153 18.4503L3.43251 17.1138C3.19731 16.9939 3.00608 16.8027 2.88624 16.5675L1.54973 17.2485ZM21.25 14.8C21.25 15.3724 21.2494 15.7566 21.2252 16.0525C21.2018 16.3396 21.1599 16.4769 21.1138 16.5675L22.4503 17.2485C22.6221 16.9112 22.6892 16.5546 22.7203 16.1747C22.7506 15.8035 22.75 15.3477 22.75 14.8H21.25ZM18.8 18.75C19.3477 18.75 19.8035 18.7506 20.1747 18.7203C20.5546 18.6892 20.9112 18.6221 21.2485 18.4503L20.5675 17.1138C20.4769 17.1599 20.3396 17.2018 20.0525 17.2252C19.7566 17.2494 19.3724 17.25 18.8 17.25V18.75ZM21.1138 16.5675C20.9939 16.8027 20.8027 16.9939 20.5675 17.1138L21.2485 18.4503C21.7659 18.1866 22.1866 17.7659 22.4503 17.2485L21.1138 16.5675ZM18.8 3.75C19.3724 3.75 19.7566 3.75058 20.0525 3.77476C20.3396 3.79822 20.4769 3.8401 20.5675 3.88624L21.2485 2.54973C20.9112 2.37789 20.5546 2.31078 20.1747 2.27974C19.8035 2.24942 19.3477 2.25 18.8 2.25V3.75ZM22.75 6.2C22.75 5.65232 22.7506 5.19646 22.7203 4.82533C22.6892 4.44545 22.6221 4.08879 22.4503 3.75153L21.1138 4.43251C21.1599 4.52307 21.2018 4.66035 21.2252 4.94748C21.2494 5.24336 21.25 5.62757 21.25 6.2H22.75ZM20.5675 3.88624C20.8027 4.00608 20.9939 4.19731 21.1138 4.43251L22.4503 3.75153C22.1866 3.23408 21.7659 2.81338 21.2485 2.54973L20.5675 3.88624ZM5.2 2.25C4.65232 2.25 4.19646 2.24942 3.82533 2.27974C3.44545 2.31078 3.08879 2.37789 2.75153 2.54973L3.43251 3.88624C3.52307 3.8401 3.66035 3.79822 3.94748 3.77476C4.24336 3.75058 4.62757 3.75 5.2 3.75V2.25ZM2.75 6.2C2.75 5.62757 2.75058 5.24336 2.77476 4.94748C2.79822 4.66035 2.8401 4.52307 2.88624 4.43251L1.54973 3.75153C1.37789 4.08879 1.31078 4.44544 1.27974 4.82533C1.24942 5.19646 1.25 5.65232 1.25 6.2H2.75ZM2.75153 2.54973C2.23408 2.81338 1.81338 3.23408 1.54973 3.75153L2.88624 4.43251C3.00608 4.19731 3.19731 4.00608 3.43251 3.88624L2.75153 2.54973Z" fill="#0E0E0F"/>
</svg>
