<svg width="24" height="24" viewBox="0 0 24 24" fill="none" xmlns="http://www.w3.org/2000/svg">
<path d="M21.2496 8.13195C19.2833 3.15469 13.6545 0.713821 8.67722 2.68012C6.36905 3.59197 4.60635 5.29149 3.5757 7.34841M3.16467 4.13261L2.7603 7.10586C2.73543 7.28872 2.74866 7.48196 2.85843 7.63031C3.12355 7.98859 3.5917 8.15241 4.03088 8.02115C4.09051 8.00333 4.14599 7.97417 4.19906 7.94167L6.70127 6.40907" stroke="#0E0E0F" stroke-width="1.5" stroke-linecap="round"/>
<path d="M2.74963 15.8676C4.71593 20.8448 10.3448 23.2857 15.322 21.3194C17.6302 20.4075 19.3929 18.708 20.4236 16.6511M20.8346 19.8669L21.239 16.8937C21.2638 16.7108 21.2506 16.5176 21.1408 16.3692C20.8757 16.0109 20.4076 15.8471 19.9684 15.9784C19.9088 15.9962 19.8533 16.0253 19.8002 16.0578L17.298 17.5904" stroke="#0E0E0F" stroke-width="1.5" stroke-linecap="round"/>
<path d="M11.9997 16.6154C13.5291 16.6154 14.7689 15.5822 14.7689 14.3077C14.7689 13.0332 13.5291 12 11.9997 12C10.4703 12 9.23047 10.9668 9.23047 9.69231C9.23047 8.41781 10.4703 7.38462 11.9997 7.38462M11.9997 16.6154C10.4703 16.6154 9.23047 15.5822 9.23047 14.3077M11.9997 16.6154V18M11.9997 6V7.38462M11.9997 7.38462C13.5291 7.38462 14.7689 8.41781 14.7689 9.69231" stroke="#0E0E0F" stroke-width="1.5" stroke-linecap="round"/>
</svg>
