<svg width="24" height="24" viewBox="0 0 24 24" fill="none" xmlns="http://www.w3.org/2000/svg">
<path d="M2.9095 10.8282L3.59096 11.1415H3.59096L2.9095 10.8282ZM21.0913 13.1718L20.4099 12.8585L21.0913 13.1718ZM2.9095 13.1718L2.22804 13.485H2.22804L2.9095 13.1718ZM21.0913 10.8282L20.4099 11.1415L21.0913 10.8282ZM17.832 5.9678C17.4842 5.74282 17.0199 5.84238 16.7949 6.19017C16.5699 6.53795 16.6695 7.00227 17.0173 7.22725L17.832 5.9678ZM7.02699 16.8007C6.67795 16.5776 6.21419 16.6798 5.99115 17.0288C5.76812 17.3779 5.87026 17.8416 6.2193 18.0647L7.02699 16.8007ZM3.4008 15.4515C3.64961 15.7826 4.11977 15.8494 4.45093 15.6006C4.78209 15.3518 4.84885 14.8816 4.60004 14.5505L3.4008 15.4515ZM13.8512 5.93505C14.2572 6.01745 14.653 5.75517 14.7354 5.34924C14.8178 4.9433 14.5556 4.54743 14.1496 4.46503L13.8512 5.93505ZM20.5307 4.53033C20.8236 4.23744 20.8236 3.76256 20.5307 3.46967C20.2378 3.17678 19.763 3.17678 19.4701 3.46967L20.5307 4.53033ZM3.47008 19.4697C3.17719 19.7626 3.17719 20.2374 3.47008 20.5303C3.76297 20.8232 4.23785 20.8232 4.53074 20.5303L3.47008 19.4697ZM12.0004 4.25C7.6629 4.25 3.92696 6.81889 2.22804 10.515L3.59096 11.1415C5.05425 7.95797 8.27027 5.75 12.0004 5.75V4.25ZM12.0004 19.75C16.3379 19.75 20.0739 17.1811 21.7728 13.485L20.4099 12.8585C18.9466 16.042 15.7306 18.25 12.0004 18.25V19.75ZM2.22804 10.515C1.79508 11.4569 1.79508 12.5431 2.22804 13.485L3.59096 12.8585C3.34077 12.3142 3.34077 11.6858 3.59096 11.1415L2.22804 10.515ZM20.4099 11.1415C20.6601 11.6858 20.6601 12.3142 20.4099 12.8585L21.7728 13.485C22.2058 12.5431 22.2058 11.4569 21.7728 10.515L20.4099 11.1415ZM21.7728 10.515C20.9154 8.64972 19.5404 7.07295 17.832 5.9678L17.0173 7.22725C18.4886 8.17901 19.6724 9.53708 20.4099 11.1415L21.7728 10.515ZM6.2193 18.0647C7.88909 19.1316 9.87369 19.75 12.0004 19.75V18.25C10.1683 18.25 8.46277 17.7181 7.02699 16.8007L6.2193 18.0647ZM2.22804 13.485C2.5495 14.1844 2.94368 14.8431 3.4008 15.4515L4.60004 14.5505C4.20646 14.0266 3.86735 13.4598 3.59096 12.8585L2.22804 13.485ZM14.1496 4.46503C13.4546 4.32394 12.7357 4.25 12.0004 4.25V5.75C12.635 5.75 13.2538 5.81378 13.8512 5.93505L14.1496 4.46503ZM9.34877 14.6517C10.8132 16.1161 13.1876 16.1161 14.6521 14.6517L13.5914 13.591C12.7127 14.4697 11.2881 14.4697 10.4094 13.591L9.34877 14.6517ZM14.6521 14.6517C16.1165 13.1872 16.1165 10.8128 14.6521 9.34835L13.5914 10.409C14.4701 11.2877 14.4701 12.7123 13.5914 13.591L14.6521 14.6517ZM19.4701 3.46967L3.47008 19.4697L4.53074 20.5303L20.5307 4.53033L19.4701 3.46967Z" fill="#0E0E0F"/>
</svg>
