<svg width="24" height="24" viewBox="0 0 24 24" fill="none" xmlns="http://www.w3.org/2000/svg">
<path d="M3.5 19.5V14.5C3.5 13.9477 3.94772 13.5 4.5 13.5H19.5C20.0523 13.5 20.5 13.9477 20.5 14.5V19.5C20.5 20.0523 20.0523 20.5 19.5 20.5H4.5C3.94772 20.5 3.5 20.0523 3.5 19.5Z" stroke="#0E0E0F" stroke-width="1.5"/>
<path d="M3.5 9.5V4.5C3.5 3.94772 3.94772 3.5 4.5 3.5H19.5C20.0523 3.5 20.5 3.94772 20.5 4.5V9.5C20.5 10.0523 20.0523 10.5 19.5 10.5H4.5C3.94772 10.5 3.5 10.0523 3.5 9.5Z" stroke="#0E0E0F" stroke-width="1.5"/>
</svg>
