<svg width="24" height="24" viewBox="0 0 24 24" fill="none" xmlns="http://www.w3.org/2000/svg">
<circle cx="12" cy="12" r="10.25" stroke="#0E0E0F" stroke-width="1.5"/>
<path d="M6.86132 17.0771L17.1097 6.88964M13.4306 7.30385L17.1075 6.88964L16.9998 10.0004" stroke="#0E0E0F" stroke-width="1.5" stroke-linecap="round" stroke-linejoin="round"/>
<path d="M10.323 10.2311C11.2017 9.35245 11.2017 7.92783 10.323 7.04915C9.44434 6.17047 8.01972 6.17047 7.14104 7.04915C6.26236 7.92783 6.26236 9.35245 7.14104 10.2311C8.01972 11.1098 9.44434 11.1098 10.323 10.2311Z" stroke="#0E0E0F" stroke-width="1.5" stroke-linecap="round" stroke-linejoin="round"/>
<path d="M17.0405 16.9484C17.9192 16.0697 17.9192 14.6451 17.0405 13.7664C16.1619 12.8878 14.7372 12.8878 13.8586 13.7664C12.9799 14.6451 12.9799 16.0697 13.8586 16.9484C14.7372 17.8271 16.1619 17.8271 17.0405 16.9484Z" stroke="#0E0E0F" stroke-width="1.5" stroke-linecap="round" stroke-linejoin="round"/>
</svg>
