<svg width="24" height="24" viewBox="0 0 24 24" fill="none" xmlns="http://www.w3.org/2000/svg">
<path d="M6.12 4.8H17.68C18.6321 4.8 19.1081 4.8 19.4718 4.98529C19.7917 5.14827 20.0517 5.40834 20.2147 5.72822C20.4 6.09187 20.4 6.56791 20.4 7.52V18.9997C20.4 19.3641 20.4 19.5462 20.3233 19.6559C20.2563 19.7517 20.1528 19.8157 20.0371 19.8328C19.9123 19.8512 19.7603 19.7799 19.4703 19.6351C19.4501 19.625 19.4399 19.62 19.43 19.6144C19.4212 19.6095 19.4124 19.6043 19.4039 19.5988C19.3943 19.5927 19.385 19.5861 19.3664 19.573L19.3663 19.5729L16.1301 17.2865C15.8218 17.0687 15.6677 16.9598 15.4995 16.8825C15.3503 16.814 15.1932 16.7641 15.0317 16.734C14.8498 16.7 14.6611 16.7 14.2836 16.7H6.12C5.16791 16.7 4.69187 16.7 4.32822 16.5147C4.00834 16.3517 3.74828 16.0917 3.58529 15.7718C3.4 15.4081 3.4 14.9321 3.4 13.98V7.52C3.4 6.56791 3.4 6.09187 3.58529 5.72822C3.74828 5.40834 4.00834 5.14827 4.32822 4.98529C4.69187 4.8 5.16791 4.8 6.12 4.8Z" stroke="#0E0E0F" stroke-width="1.5"/>
</svg>
