<svg width="24" height="24" viewBox="0 0 24 24" fill="none" xmlns="http://www.w3.org/2000/svg">
<path d="M19.5064 18.0111L20.234 17.8292V17.8292L19.5064 18.0111ZM19.3064 17.2111L18.5788 17.393L18.5788 17.393L19.3064 17.2111ZM4.7004 17.2111L3.9728 17.0292H3.9728L4.7004 17.2111ZM4.5004 18.0111L5.22801 18.193L4.5004 18.0111ZM5.39683 16.0772L5.10632 15.3858H5.10632L5.39683 16.0772ZM4.9837 16.3998L5.58405 16.8493H5.58405L4.9837 16.3998ZM19.0231 16.3998L18.4227 16.8493V16.8493L19.0231 16.3998ZM18.61 16.0772L18.9005 15.3858V15.3858L18.61 16.0772ZM19.2408 19.8544L18.8522 19.213L19.2408 19.8544ZM19.678 19.2944L20.3946 19.5159V19.5159L19.678 19.2944ZM4.76598 19.8544L5.15462 19.213H5.15462L4.76598 19.8544ZM4.32876 19.2944L5.04531 19.073H5.04531L4.32876 19.2944ZM11.2878 3.35692L10.9524 2.6861V2.6861L11.2878 3.35692ZM5.43447 6.28361L5.76988 6.95443H5.76988L5.43447 6.28361ZM4.71893 8.43024L4.04811 8.76565H4.04811L4.71893 8.43024ZM4.89283 8.77804L5.56365 8.44263L5.56365 8.44263L4.89283 8.77804ZM19.1139 8.77804L18.4431 8.44263V8.44263L19.1139 8.77804ZM19.2878 8.43024L18.617 8.09483L18.617 8.09483L19.2878 8.43024ZM18.5723 6.28361L18.9077 5.61279V5.61279L18.5723 6.28361ZM12.7189 3.35692L13.0543 2.6861L12.7189 3.35692ZM19.6617 7.43878L20.4117 7.43308L19.6617 7.43878ZM19.4663 6.85246L18.8629 7.29789L18.8629 7.29789L19.4663 6.85246ZM4.5405 6.85246L3.9371 6.40703L3.9371 6.40703L4.5405 6.85246ZM4.34506 7.43878L3.59508 7.43308H3.59508L4.34506 7.43878ZM18.9304 8.98549L18.6858 8.27648L18.6858 8.27648L18.9304 8.98549ZM19.0238 8.92776L19.5486 9.46357L19.5486 9.46357L19.0238 8.92776ZM5.07638 8.98549L5.32093 8.27648H5.32093L5.07638 8.98549ZM4.98297 8.92776L4.45818 9.46357L4.45818 9.46357L4.98297 8.92776ZM11.819 3.13434L11.6807 2.3972L11.819 3.13434ZM12.1878 3.13434L12.3261 2.3972L12.1878 3.13434ZM6.25339 14.9992C6.25339 15.4134 6.58918 15.7492 7.00339 15.7492C7.4176 15.7492 7.75339 15.4134 7.75339 14.9992H6.25339ZM7.75339 8.99915C7.75339 8.58494 7.4176 8.24915 7.00339 8.24915C6.58918 8.24915 6.25339 8.58494 6.25339 8.99915H7.75339ZM11.2534 14.9992C11.2534 15.4134 11.5892 15.7492 12.0034 15.7492C12.4176 15.7492 12.7534 15.4134 12.7534 14.9992H11.2534ZM12.7534 9.99915C12.7534 9.58494 12.4176 9.24915 12.0034 9.24915C11.5892 9.24915 11.2534 9.58494 11.2534 9.99915H12.7534ZM16.2534 14.9992C16.2534 15.4134 16.5892 15.7492 17.0034 15.7492C17.4176 15.7492 17.7534 15.4134 17.7534 14.9992H16.2534ZM17.7534 9.99915C17.7534 9.58494 17.4176 9.24915 17.0034 9.24915C16.5892 9.24915 16.2534 9.58494 16.2534 9.99915H17.7534ZM6.05263 20.7492H17.9541V19.2492H6.05263V20.7492ZM20.234 17.8292L20.034 17.0292L18.5788 17.393L18.7788 18.193L20.234 17.8292ZM17.7541 15.2492H6.25263V16.7492H17.7541V15.2492ZM3.9728 17.0292L3.7728 17.8292L5.22801 18.193L5.42801 17.393L3.9728 17.0292ZM6.25263 15.2492C5.8756 15.2492 5.46552 15.2349 5.10632 15.3858L5.68733 16.7687C5.67613 16.7734 5.68884 16.7636 5.78102 16.757C5.88262 16.7496 6.01859 16.7492 6.25263 16.7492V15.2492ZM5.42801 17.393C5.48478 17.1659 5.51819 17.0341 5.54996 16.9374C5.57879 16.8496 5.59133 16.8396 5.58405 16.8493L4.38335 15.9502C4.14982 16.2621 4.06424 16.6634 3.9728 17.0292L5.42801 17.393ZM5.10632 15.3858C4.81943 15.5063 4.56987 15.7011 4.38335 15.9502L5.58405 16.8493C5.61069 16.8137 5.64635 16.7859 5.68733 16.7687L5.10632 15.3858ZM20.034 17.0292C19.9425 16.6634 19.857 16.2621 19.6234 15.9502L18.4227 16.8493C18.4155 16.8396 18.428 16.8496 18.4568 16.9374C18.4886 17.0341 18.522 17.1659 18.5788 17.393L20.034 17.0292ZM17.7541 16.7492C17.9882 16.7492 18.1242 16.7496 18.2258 16.757C18.3179 16.7636 18.3306 16.7734 18.3194 16.7687L18.9005 15.3858C18.5413 15.2349 18.1312 15.2492 17.7541 15.2492V16.7492ZM19.6234 15.9502C19.4369 15.7012 19.1874 15.5063 18.9005 15.3858L18.3194 16.7687C18.3604 16.7859 18.3961 16.8137 18.4227 16.8493L19.6234 15.9502ZM17.9541 20.7492C18.2896 20.7492 18.5907 20.7498 18.8359 20.7281C19.0868 20.7059 19.3669 20.655 19.6294 20.4959L18.8522 19.213C18.8759 19.1986 18.8619 19.22 18.7037 19.234C18.54 19.2485 18.3172 19.2492 17.9541 19.2492V20.7492ZM18.7788 18.193C18.8668 18.5452 18.9202 18.7616 18.9459 18.9239C18.9706 19.0807 18.9533 19.0995 18.9615 19.073L20.3946 19.5159C20.4852 19.2226 20.4668 18.9385 20.4275 18.6897C20.389 18.4465 20.3154 18.1547 20.234 17.8292L18.7788 18.193ZM19.6294 20.4959C19.9958 20.2739 20.2681 19.9252 20.3946 19.5159L18.9615 19.073C18.9434 19.1314 18.9045 19.1813 18.8522 19.213L19.6294 20.4959ZM6.05263 19.2492C5.68961 19.2492 5.46673 19.2485 5.30304 19.234C5.14493 19.22 5.13092 19.1986 5.15462 19.213L4.37733 20.4959C4.63992 20.655 4.91998 20.7059 5.17085 20.7281C5.41613 20.7498 5.71714 20.7492 6.05263 20.7492V19.2492ZM3.7728 17.8292C3.69143 18.1547 3.61775 18.4465 3.57932 18.6897C3.54 18.9385 3.52154 19.2226 3.6122 19.5159L5.04531 19.073C5.0535 19.0995 5.03615 19.0807 5.06093 18.9239C5.08658 18.7616 5.13997 18.5452 5.22801 18.193L3.7728 17.8292ZM5.15462 19.213C5.10228 19.1813 5.06339 19.1314 5.04531 19.073L3.6122 19.5159C3.7387 19.9252 4.01094 20.2739 4.37734 20.4959L5.15462 19.213ZM5.2506 9.74915H18.7562V8.24915H5.2506V9.74915ZM10.9524 2.6861L5.09906 5.61279L5.76988 6.95443L11.6233 4.02774L10.9524 2.6861ZM4.04811 8.76565L4.22201 9.11345L5.56365 8.44263L5.38975 8.09483L4.04811 8.76565ZM19.7848 9.11345L19.9587 8.76565L18.617 8.09483L18.4431 8.44263L19.7848 9.11345ZM18.9077 5.61279L13.0543 2.6861L12.3835 4.02774L18.2369 6.95443L18.9077 5.61279ZM19.9587 8.76565C20.0784 8.52625 20.1888 8.30662 20.2653 8.11636C20.345 7.91794 20.4137 7.69155 20.4117 7.43308L18.9117 7.44447C18.9116 7.42607 18.9185 7.44496 18.8735 7.55702C18.8252 7.67723 18.7478 7.83329 18.617 8.09483L19.9587 8.76565ZM18.2369 6.95443C18.4984 7.0852 18.654 7.16362 18.7647 7.23081C18.868 7.29343 18.8738 7.31269 18.8629 7.29789L20.0697 6.40703C19.9162 6.19907 19.7254 6.05914 19.5426 5.94825C19.3673 5.84191 19.1471 5.73249 18.9077 5.61279L18.2369 6.95443ZM20.4117 7.43308C20.4089 7.06353 20.2892 6.70435 20.0697 6.40703L18.8629 7.29789C18.8942 7.34036 18.9113 7.39168 18.9117 7.44447L20.4117 7.43308ZM5.09906 5.61279C4.85967 5.73249 4.63952 5.84191 4.46419 5.94825C4.28134 6.05914 4.09061 6.19907 3.9371 6.40703L5.1439 7.29789C5.13297 7.31269 5.13877 7.29343 5.24203 7.23081C5.35281 7.16362 5.50835 7.0852 5.76988 6.95443L5.09906 5.61279ZM5.38975 8.09483C5.25899 7.83329 5.18161 7.67723 5.13329 7.55702C5.08826 7.44495 5.09518 7.42607 5.09504 7.44447L3.59508 7.43308C3.59312 7.69155 3.66174 7.91794 3.74148 8.11636C3.81795 8.30662 3.92841 8.52625 4.04811 8.76565L5.38975 8.09483ZM3.9371 6.40703C3.71761 6.70435 3.59789 7.06353 3.59508 7.43308L5.09504 7.44447C5.09544 7.39168 5.11254 7.34036 5.1439 7.29789L3.9371 6.40703ZM18.7562 9.74915C18.7915 9.74915 18.9881 9.75894 19.175 9.6945L18.6858 8.27648C18.7531 8.25328 18.8053 8.24953 18.8154 8.2489C18.8196 8.24864 18.8183 8.24885 18.8065 8.249C18.7946 8.24914 18.7799 8.24915 18.7562 8.24915V9.74915ZM18.4431 8.44263C18.4325 8.46387 18.4259 8.47698 18.4205 8.48758C18.4151 8.49805 18.4143 8.49908 18.4164 8.49548C18.4215 8.48669 18.4482 8.44173 18.499 8.39195L19.5486 9.46357C19.6898 9.32529 19.7689 9.14509 19.7848 9.11345L18.4431 8.44263ZM19.175 9.6945C19.3151 9.64616 19.4427 9.56728 19.5486 9.46357L18.499 8.39194C18.552 8.34009 18.6158 8.30065 18.6858 8.27648L19.175 9.6945ZM5.2506 8.24915C5.22685 8.24915 5.21219 8.24914 5.20027 8.249C5.18848 8.24885 5.18723 8.24864 5.19138 8.2489C5.20153 8.24953 5.25367 8.25328 5.32093 8.27648L4.83183 9.6945C5.01865 9.75894 5.21524 9.74915 5.2506 9.74915V8.24915ZM4.22201 9.11345C4.23783 9.14508 4.31699 9.32529 4.45818 9.46357L5.50776 8.39195C5.55859 8.44173 5.58526 8.48669 5.59037 8.49549C5.59245 8.49908 5.5917 8.49806 5.5863 8.48758C5.58084 8.47698 5.57428 8.46387 5.56365 8.44263L4.22201 9.11345ZM5.32093 8.27648C5.391 8.30065 5.45481 8.34009 5.50776 8.39194L4.45818 9.46357C4.56408 9.56729 4.6917 9.64617 4.83183 9.6945L5.32093 8.27648ZM11.6233 4.02774C11.7613 3.95872 11.8392 3.92007 11.8994 3.89384C11.9525 3.87076 11.9632 3.87037 11.9573 3.87147L11.6807 2.3972C11.4156 2.44692 11.1759 2.57436 10.9524 2.6861L11.6233 4.02774ZM13.0543 2.6861C12.8309 2.57436 12.5911 2.44692 12.3261 2.3972L12.0495 3.87147C12.0436 3.87037 12.0543 3.87076 12.1073 3.89384C12.1676 3.92007 12.2455 3.95872 12.3835 4.02774L13.0543 2.6861ZM11.9573 3.87147C11.9878 3.86576 12.019 3.86576 12.0495 3.87147L12.3261 2.3972C12.1128 2.35718 11.894 2.35718 11.6807 2.3972L11.9573 3.87147ZM7.75339 14.9992V8.99915H6.25339V14.9992H7.75339ZM12.7534 14.9992V9.99915H11.2534V14.9992H12.7534ZM17.7534 14.9992V9.99915H16.2534V14.9992H17.7534Z" fill="#0E0E0F"/>
</svg>
