<svg width="24" height="24" viewBox="0 0 24 24" fill="none" xmlns="http://www.w3.org/2000/svg">
<mask id="path-1-outside-1_1131_435" maskUnits="userSpaceOnUse" x="3" y="3" width="18" height="18" fill="black">
<rect fill="white" x="3" y="3" width="18" height="18"/>
<path d="M7.8 6.4C7.8 7.1732 7.1732 7.8 6.4 7.8C5.6268 7.8 5 7.1732 5 6.4C5 5.6268 5.6268 5 6.4 5C7.1732 5 7.8 5.6268 7.8 6.4Z"/>
<path d="M19 17.6C19 18.3732 18.3732 19 17.6 19C16.8268 19 16.2 18.3732 16.2 17.6C16.2 16.8268 16.8268 16.2 17.6 16.2C18.3732 16.2 19 16.8268 19 17.6Z"/>
</mask>
<path d="M4.46967 18.4697C4.17678 18.7626 4.17678 19.2374 4.46967 19.5303C4.76256 19.8232 5.23744 19.8232 5.53033 19.5303L4.46967 18.4697ZM19.5303 5.53033C19.8232 5.23744 19.8232 4.76256 19.5303 4.46967C19.2374 4.17678 18.7626 4.17678 18.4697 4.46967L19.5303 5.53033ZM5.87466 5.12491C5.46044 5.12491 5.12466 5.4607 5.12466 5.87491C5.12466 6.28913 5.46044 6.62491 5.87466 6.62491V5.12491ZM6.92466 6.62491C7.33887 6.62491 7.67466 6.28913 7.67466 5.87491C7.67466 5.4607 7.33887 5.12491 6.92466 5.12491V6.62491ZM5.87466 6.17491C5.46044 6.17491 5.12466 6.5107 5.12466 6.92491C5.12466 7.33913 5.46044 7.67491 5.87466 7.67491V6.17491ZM6.92466 7.67491C7.33887 7.67491 7.67466 7.33913 7.67466 6.92491C7.67466 6.5107 7.33887 6.17491 6.92466 6.17491V7.67491ZM17.0747 16.3249C16.6604 16.3249 16.3247 16.6607 16.3247 17.0749C16.3247 17.4891 16.6604 17.8249 17.0747 17.8249V16.3249ZM18.1247 17.8249C18.5389 17.8249 18.8747 17.4891 18.8747 17.0749C18.8747 16.6607 18.5389 16.3249 18.1247 16.3249V17.8249ZM17.0747 17.3749C16.6604 17.3749 16.3247 17.7107 16.3247 18.1249C16.3247 18.5391 16.6604 18.8749 17.0747 18.8749V17.3749ZM18.1247 18.8749C18.5389 18.8749 18.8747 18.5391 18.8747 18.1249C18.8747 17.7107 18.5389 17.3749 18.1247 17.3749V18.8749ZM5.53033 19.5303L19.5303 5.53033L18.4697 4.46967L4.46967 18.4697L5.53033 19.5303ZM5.87466 6.62491H6.92466V5.12491H5.87466V6.62491ZM5.87466 7.67491H6.92466V6.17491H5.87466V7.67491ZM17.0747 17.8249H18.1247V16.3249H17.0747V17.8249ZM17.0747 18.8749H18.1247V17.3749H17.0747V18.8749ZM6.3 6.4C6.3 6.34477 6.34477 6.3 6.4 6.3V9.3C8.00163 9.3 9.3 8.00163 9.3 6.4H6.3ZM6.4 6.3C6.45523 6.3 6.5 6.34477 6.5 6.4H3.5C3.5 8.00163 4.79838 9.3 6.4 9.3V6.3ZM6.5 6.4C6.5 6.45523 6.45523 6.5 6.4 6.5V3.5C4.79838 3.5 3.5 4.79837 3.5 6.4H6.5ZM6.4 6.5C6.34477 6.5 6.3 6.45523 6.3 6.4H9.3C9.3 4.79837 8.00163 3.5 6.4 3.5V6.5ZM17.5 17.6C17.5 17.5448 17.5448 17.5 17.6 17.5V20.5C19.2016 20.5 20.5 19.2016 20.5 17.6H17.5ZM17.6 17.5C17.6552 17.5 17.7 17.5448 17.7 17.6H14.7C14.7 19.2016 15.9984 20.5 17.6 20.5V17.5ZM17.7 17.6C17.7 17.6552 17.6552 17.7 17.6 17.7V14.7C15.9984 14.7 14.7 15.9984 14.7 17.6H17.7ZM17.6 17.7C17.5448 17.7 17.5 17.6552 17.5 17.6H20.5C20.5 15.9984 19.2016 14.7 17.6 14.7V17.7Z" fill="#0E0E0F" mask="url(#path-1-outside-1_1131_435)"/>
</svg>
