<svg width="24" height="24" viewBox="0 0 24 24" fill="none" xmlns="http://www.w3.org/2000/svg">
<path d="M4 20L9 15M4.70711 10.7071L13.2929 19.2929C13.5842 19.5842 14.0832 19.4179 14.1414 19.0101L14.9057 13.66C14.9669 13.2316 15.1654 12.8346 15.4714 12.5286L17.4142 10.5858C17.7893 10.2107 18.298 10 18.8284 10H19.7929C20.2383 10 20.4614 9.46143 20.1464 9.14645L14.8536 3.85355C14.5386 3.53857 14 3.76166 14 4.20711V5.17157C14 5.70201 13.7893 6.21071 13.4142 6.58579L11.4714 8.5286C11.1654 8.83459 10.7684 9.03308 10.34 9.09428L4.98995 9.85858C4.58207 9.91685 4.41576 10.4158 4.70711 10.7071Z" stroke="#0E0E0F" stroke-width="1.5" stroke-linecap="round"/>
</svg>
