<svg width="24" height="24" viewBox="0 0 24 24" fill="none" xmlns="http://www.w3.org/2000/svg">
<path d="M21 6.44444H21.75C21.75 6.15903 21.588 5.89835 21.3321 5.77197L21 6.44444ZM3 6.44444L2.66791 5.77197C2.412 5.89835 2.25 6.15903 2.25 6.44444H3ZM12 22L11.6679 22.6725C11.8772 22.7758 12.1228 22.7758 12.3321 22.6725L12 22ZM7.5 19.7778L7.16791 20.4503L7.5 19.7778ZM7.5 4.22222L7.16791 3.54975L7.5 4.22222ZM16.5 19.7778L16.8321 20.4503L16.5 19.7778ZM17.063 13.9452L16.7308 13.2727L17.063 13.9452ZM16.506 14.8405L15.756 14.8396L16.506 14.8405ZM6.94697 13.9447L6.61549 14.6175L6.94697 13.9447ZM11.5572 2.21866L11.2251 1.54618L11.5572 2.21866ZM12.4428 2.21866L12.7749 1.54618L12.4428 2.21866ZM11.5574 6.2304L11.8901 5.55822L11.5574 6.2304ZM12.4448 6.23031L12.112 5.5582L12.4448 6.23031ZM20.4428 17.8307L20.1107 17.1583L20.4428 17.8307ZM20.6679 5.77197L11.6679 10.2164L12.3321 11.5614L21.3321 7.11692L20.6679 5.77197ZM12.3321 10.2164L3.33209 5.77197L2.66791 7.11692L11.6679 11.5614L12.3321 10.2164ZM11.25 10.8889V22H12.75V10.8889H11.25ZM3.75 16.9341V12H2.25V16.9341H3.75ZM3.75 12V6.44444H2.25V12H3.75ZM2.66852 12.6728L6.61549 14.6175L7.27846 13.272L3.33148 11.3272L2.66852 12.6728ZM12.3321 21.3275L7.83209 19.1053L7.16791 20.4503L11.6679 22.6725L12.3321 21.3275ZM7.83209 19.1053L3.8893 17.1583L3.22513 18.5032L7.16791 20.4503L7.83209 19.1053ZM6.75499 14.842L6.75 19.777L8.25 19.7785L8.25499 14.8435L6.75499 14.842ZM3.33209 7.11692L7.83209 4.89469L7.16791 3.54975L2.66791 5.77197L3.33209 7.11692ZM7.83209 4.89469L11.8893 2.89113L11.2251 1.54618L7.16791 3.54975L7.83209 4.89469ZM7.16731 4.8944L11.2247 6.90258L11.8901 5.55822L7.83269 3.55005L7.16731 4.8944ZM12.1107 2.89113L16.1679 4.89469L16.8321 3.54975L12.7749 1.54618L12.1107 2.89113ZM16.1679 4.89469L20.6679 7.11692L21.3321 5.77197L16.8321 3.54975L16.1679 4.89469ZM12.7776 6.90242L16.8328 4.89433L16.1672 3.55011L12.112 5.5582L12.7776 6.90242ZM21.75 16.9341V12H20.25V16.9341H21.75ZM21.75 12V6.44444H20.25V12H21.75ZM20.6678 11.3276L16.7308 13.2727L17.3953 14.6176L21.3322 12.6724L20.6678 11.3276ZM20.1107 17.1583L16.1679 19.1053L16.8321 20.4503L20.7749 18.5032L20.1107 17.1583ZM16.1679 19.1053L11.6679 21.3275L12.3321 22.6725L16.8321 20.4503L16.1679 19.1053ZM15.756 14.8396L15.75 19.7769L17.25 19.7787L17.256 14.8414L15.756 14.8396ZM16.7308 13.2727C16.1345 13.5673 15.7568 14.1745 15.756 14.8396L17.256 14.8414C17.2561 14.7464 17.3101 14.6596 17.3953 14.6176L16.7308 13.2727ZM6.61549 14.6175C6.70099 14.6596 6.75509 14.7467 6.75499 14.842L8.25499 14.8435C8.25567 14.1764 7.87693 13.5669 7.27846 13.272L6.61549 14.6175ZM11.8893 2.89113C11.9591 2.85667 12.0409 2.85667 12.1107 2.89113L12.7749 1.54618C12.2864 1.30499 11.7136 1.30499 11.2251 1.54618L11.8893 2.89113ZM11.2247 6.90258C11.714 7.14475 12.2883 7.14469 12.7776 6.90242L12.112 5.5582C12.0421 5.59281 11.96 5.59282 11.8901 5.55822L11.2247 6.90258ZM2.25 16.9341C2.25 17.6001 2.628 18.2083 3.22513 18.5032L3.8893 17.1583C3.804 17.1161 3.75 17.0292 3.75 16.9341H2.25ZM20.25 16.9341C20.25 17.0292 20.196 17.1161 20.1107 17.1583L20.7749 18.5032C21.372 18.2083 21.75 17.6001 21.75 16.9341H20.25Z" fill="#0E0E0F"/>
</svg>
