<svg width="24" height="24" viewBox="0 0 24 24" fill="none" xmlns="http://www.w3.org/2000/svg">
<path d="M18.7819 6.07641L18.0797 6.33975L18.7819 6.07641ZM20.2798 10.0707L19.5775 10.334V10.334L20.2798 10.0707ZM19.5463 13.457L19.0159 12.9267L19.5463 13.457ZM14.266 18.7373L14.7963 19.2676L14.266 18.7373ZM9.74054 18.7373L9.21021 19.2676L9.74054 18.7373ZM4.46029 13.457L3.92996 13.9873H3.92996L4.46029 13.457ZM3.72678 10.0707L4.42903 10.334V10.334L3.72678 10.0707ZM5.22463 6.0764L5.92688 6.33975L5.22463 6.0764ZM3.52046 12.3522L2.84258 12.6731H2.84258L3.52046 12.3522ZM3.32837 11.4654L2.57846 11.4537L3.32837 11.4654ZM12.6213 20.0737L12.8531 20.787L12.8531 20.787L12.6213 20.0737ZM11.3852 20.0737L11.1535 20.787L11.1535 20.787L11.3852 20.0737ZM20.6782 11.4654L21.4281 11.4537V11.4537L20.6782 11.4654ZM20.4861 12.3522L21.164 12.6731L21.164 12.6731L20.4861 12.3522ZM17.3286 4.13076L17.0618 4.83173L17.0618 4.83173L17.3286 4.13076ZM18.1178 4.67766L17.5551 5.17354L17.5551 5.17354L18.1178 4.67766ZM6.67798 4.13076L6.41125 3.4298V3.4298L6.67798 4.13076ZM5.88881 4.67766L5.32613 4.18178L5.32613 4.18178L5.88881 4.67766ZM15.0033 11.75C15.4175 11.75 15.7533 11.4142 15.7533 11C15.7533 10.5858 15.4175 10.25 15.0033 10.25V11.75ZM9.00328 10.25C8.58907 10.25 8.25328 10.5858 8.25328 11C8.25328 11.4142 8.58907 11.75 9.00328 11.75V10.25ZM8.22088 4.75H15.7857V3.25H8.22088V4.75ZM18.0797 6.33975L19.5775 10.334L20.982 9.80733L19.4842 5.81306L18.0797 6.33975ZM19.0159 12.9267L13.7357 18.2069L14.7963 19.2676L20.0766 13.9873L19.0159 12.9267ZM10.2709 18.2069L4.99062 12.9267L3.92996 13.9873L9.21021 19.2676L10.2709 18.2069ZM4.42903 10.334L5.92688 6.33975L4.52238 5.81306L3.02453 9.80733L4.42903 10.334ZM4.99062 12.9267C4.4228 12.3589 4.27771 12.1989 4.19833 12.0313L2.84258 12.6731C3.05986 13.1321 3.44244 13.4998 3.92996 13.9873L4.99062 12.9267ZM3.02453 9.80733C2.78245 10.4529 2.58634 10.946 2.57846 11.4537L4.07828 11.477C4.08115 11.2915 4.14706 11.0859 4.42903 10.334L3.02453 9.80733ZM4.19833 12.0313C4.11638 11.8582 4.0753 11.6685 4.07828 11.477L2.57846 11.4537C2.57192 11.8751 2.66228 12.2922 2.84258 12.6731L4.19833 12.0313ZM13.7357 18.2069C13.3309 18.6117 13.0588 18.883 12.8325 19.0751C12.6129 19.2615 12.4862 19.329 12.3896 19.3604L12.8531 20.787C13.2131 20.67 13.5127 20.4653 13.8033 20.2186C14.0872 19.9776 14.4091 19.6549 14.7963 19.2676L13.7357 18.2069ZM9.21021 19.2676C9.59747 19.6549 9.91941 19.9776 10.2033 20.2186C10.4938 20.4653 10.7935 20.67 11.1535 20.787L11.617 19.3604C11.5203 19.329 11.3937 19.2615 11.174 19.0751C10.9477 18.883 10.6756 18.6117 10.2709 18.2069L9.21021 19.2676ZM12.3896 19.3604C12.1385 19.442 11.8681 19.442 11.617 19.3604L11.1535 20.787C11.7058 20.9664 12.3008 20.9664 12.8531 20.787L12.3896 19.3604ZM19.5775 10.334C19.8595 11.0859 19.9254 11.2915 19.9283 11.477L21.4281 11.4537C21.4202 10.946 21.2241 10.4529 20.982 9.80733L19.5775 10.334ZM20.0766 13.9873C20.5641 13.4998 20.9467 13.1321 21.164 12.6731L19.8082 12.0313C19.7289 12.1989 19.5838 12.3589 19.0159 12.9267L20.0766 13.9873ZM19.9283 11.477C19.9313 11.6685 19.8902 11.8582 19.8082 12.0313L21.164 12.6731C21.3443 12.2922 21.4346 11.8751 21.4281 11.4537L19.9283 11.477ZM15.7857 4.75C16.6466 4.75 16.8782 4.76183 17.0618 4.83173L17.5953 3.4298C17.0917 3.23817 16.5238 3.25 15.7857 3.25V4.75ZM19.4842 5.81306C19.225 5.12193 19.0367 4.58601 18.6804 4.18178L17.5551 5.17354C17.685 5.32098 17.7774 5.53367 18.0797 6.33975L19.4842 5.81306ZM17.0618 4.83173C17.2516 4.90392 17.4209 5.02124 17.5551 5.17354L18.6804 4.18178C18.3851 3.84673 18.0127 3.58863 17.5953 3.4298L17.0618 4.83173ZM8.22088 3.25C7.48275 3.25 6.91483 3.23817 6.41125 3.4298L6.94472 4.83173C7.1284 4.76183 7.35999 4.75 8.22088 4.75V3.25ZM5.92688 6.33975C6.22916 5.53367 6.32155 5.32098 6.45149 5.17354L5.32613 4.18178C4.96989 4.58601 4.78156 5.12193 4.52238 5.81306L5.92688 6.33975ZM6.41125 3.4298C5.99385 3.58863 5.62141 3.84673 5.32613 4.18178L6.45149 5.17354C6.5857 5.02124 6.75499 4.90392 6.94472 4.83173L6.41125 3.4298ZM15.0033 10.25H9.00328V11.75H15.0033V10.25Z" fill="#0E0E0F"/>
</svg>
