<svg width="24" height="24" viewBox="0 0 24 24" fill="none" xmlns="http://www.w3.org/2000/svg">
<path d="M16.5402 9.73328L20.0599 11.4931C20.4776 11.702 20.4776 12.298 20.0599 12.5069L12.2602 16.4067C12.1007 16.4865 11.9129 16.4865 11.7533 16.4067L3.81328 12.4367C3.43673 12.2484 3.3929 11.7345 3.71836 11.4828C3.74039 11.4657 3.76515 11.4526 3.79057 11.4412L7.53574 9.76449M16.5402 14.2667L20.0599 16.0266C20.4776 16.2354 20.4776 16.8315 20.0599 17.0403L12.2602 20.9402C12.1007 21.0199 11.9129 21.0199 11.7533 20.9402L3.81328 16.9701C3.43573 16.7814 3.39267 16.2652 3.72098 16.0142C3.74137 15.9986 3.76406 15.9864 3.78734 15.9756L7.47332 14.2667M11.7533 3.05983L3.95358 6.9597C3.53591 7.16854 3.53591 7.76458 3.95358 7.97341L11.7533 11.8733C11.9129 11.9531 12.1007 11.9531 12.2602 11.8733L20.0599 7.97341C20.4776 7.76458 20.4776 7.16854 20.0599 6.9597L12.2602 3.05983C12.1007 2.98006 11.9129 2.98006 11.7533 3.05983Z" stroke="#0E0E0F" stroke-width="1.5" stroke-linecap="round"/>
</svg>
