<svg width="24" height="24" viewBox="0 0 24 24" fill="none" xmlns="http://www.w3.org/2000/svg">
<path d="M15.5 7.28571L8.5 10.7143M8.5 13.2857L15.5 16.7143M8.5 12C8.5 13.6569 7.15685 15 5.5 15C3.84315 15 2.5 13.6569 2.5 12C2.5 10.3431 3.84315 9 5.5 9C7.15685 9 8.5 10.3431 8.5 12ZM21.5 6C21.5 7.65685 20.1569 9 18.5 9C16.8431 9 15.5 7.65685 15.5 6C15.5 4.34315 16.8431 3 18.5 3C20.1569 3 21.5 4.34315 21.5 6ZM21.5 18C21.5 19.6569 20.1569 21 18.5 21C16.8431 21 15.5 19.6569 15.5 18C15.5 16.3431 16.8431 15 18.5 15C20.1569 15 21.5 16.3431 21.5 18Z" stroke="#0E0E0F" stroke-width="1.5" stroke-linecap="round"/>
</svg>
