<svg width="24" height="24" viewBox="0 0 24 24" fill="none" xmlns="http://www.w3.org/2000/svg">
  <g>
    <path
      d="M21.5 12.5C21.5 18.0228 17.0228 22.5 11.5 22.5C5.97715 22.5 1.5 18.0228 1.5 12.5C1.5 6.97715 5.97715 2.5 11.5 2.5"
      stroke="#0E0E0F" stroke-width="1.5" stroke-linecap="round" />
    <path
      d="M17.5 12.5C17.5 15.8137 14.8137 18.5 11.5 18.5C8.18629 18.5 5.5 15.8137 5.5 12.5C5.5 9.18629 8.18629 6.5 11.5 6.5"
      stroke="#0E0E0F" stroke-width="1.5" stroke-linecap="round" />
    <path
      d="M11.3456 12.6544L14.3035 9.69654M14.3035 9.20356V4.88463C14.3035 4.75191 14.357 4.62481 14.4519 4.53205L17.4098 1.64139C17.7219 1.33633 18.2473 1.55749 18.2473 1.99397V5.25971C18.2473 5.53198 18.468 5.75269 18.7403 5.75269H22.006C22.4425 5.75269 22.6637 6.27808 22.3586 6.59023L19.468 9.54812C19.3752 9.64303 19.2481 9.69654 19.1154 9.69654H14.7964C14.5242 9.69654 14.3035 9.47582 14.3035 9.20356Z"
      stroke="#0E0E0F" stroke-width="1.5" stroke-linecap="round" />
  </g>
</svg>
