<svg width="24" height="24" viewBox="0 0 24 24" fill="none" xmlns="http://www.w3.org/2000/svg">
<path d="M11.25 16C11.25 16.4142 11.5858 16.75 12 16.75C12.4142 16.75 12.75 16.4142 12.75 16H11.25ZM12.75 5C12.75 4.58579 12.4142 4.25 12 4.25C11.5858 4.25 11.25 4.58579 11.25 5L12.75 5ZM15.4697 7.53033C15.7626 7.82323 16.2374 7.82323 16.5303 7.53033C16.8232 7.23744 16.8232 6.76257 16.5303 6.46967L15.4697 7.53033ZM12.7071 3.70711L12.1768 4.23744L12.7071 3.70711ZM11.2929 3.70711L11.8232 4.23744L11.8232 4.23744L11.2929 3.70711ZM7.46967 6.46967C7.17678 6.76256 7.17678 7.23744 7.46967 7.53033C7.76256 7.82322 8.23744 7.82322 8.53033 7.53033L7.46967 6.46967ZM3.75 16C3.75 15.5858 3.41421 15.25 3 15.25C2.58579 15.25 2.25 15.5858 2.25 16H3.75ZM21.75 16C21.75 15.5858 21.4142 15.25 21 15.25C20.5858 15.25 20.25 15.5858 20.25 16H21.75ZM19.362 20.673L19.0215 20.0048L19.362 20.673ZM20.673 19.362L21.3413 19.7025L20.673 19.362ZM3.32698 19.362L2.65873 19.7025L3.32698 19.362ZM4.63803 20.673L4.29754 21.3413H4.29754L4.63803 20.673ZM12.75 16L12.75 5L11.25 5L11.25 16H12.75ZM16.5303 6.46967L13.2374 3.17678L12.1768 4.23744L15.4697 7.53033L16.5303 6.46967ZM10.7626 3.17678L7.46967 6.46967L8.53033 7.53033L11.8232 4.23744L10.7626 3.17678ZM13.2374 3.17678C12.554 2.49336 11.446 2.49336 10.7626 3.17678L11.8232 4.23744C11.9209 4.13981 12.0791 4.13981 12.1768 4.23744L13.2374 3.17678ZM2.25 16V16.2H3.75V16H2.25ZM7.8 21.75H16.2V20.25H7.8V21.75ZM21.75 16.2V16H20.25V16.2H21.75ZM16.2 21.75C17.0277 21.75 17.6936 21.7506 18.2315 21.7066C18.7781 21.662 19.2582 21.5676 19.7025 21.3413L19.0215 20.0048C18.824 20.1054 18.5632 20.1745 18.1093 20.2116C17.6467 20.2494 17.0525 20.25 16.2 20.25V21.75ZM20.25 16.2C20.25 17.0525 20.2494 17.6467 20.2116 18.1093C20.1745 18.5632 20.1054 18.824 20.0048 19.0215L21.3413 19.7025C21.5676 19.2582 21.662 18.7781 21.7066 18.2315C21.7506 17.6936 21.75 17.0277 21.75 16.2H20.25ZM19.7025 21.3413C20.4081 20.9818 20.9817 20.4081 21.3413 19.7025L20.0048 19.0215C19.789 19.4448 19.4448 19.7891 19.0215 20.0048L19.7025 21.3413ZM2.25 16.2C2.25 17.0277 2.24942 17.6936 2.29336 18.2315C2.33803 18.7781 2.43238 19.2582 2.65873 19.7025L3.99524 19.0215C3.8946 18.824 3.82546 18.5632 3.78838 18.1093C3.75058 17.6467 3.75 17.0525 3.75 16.2H2.25ZM7.8 20.25C6.94755 20.25 6.35331 20.2494 5.89068 20.2116C5.4368 20.1745 5.17604 20.1054 4.97852 20.0048L4.29754 21.3413C4.74175 21.5676 5.22189 21.662 5.76853 21.7066C6.30641 21.7506 6.9723 21.75 7.8 21.75V20.25ZM2.65873 19.7025C3.01825 20.4081 3.59193 20.9818 4.29754 21.3413L4.97852 20.0048C4.55516 19.7891 4.21095 19.4448 3.99524 19.0215L2.65873 19.7025Z" fill="#0E0E0F"/>
</svg>
