<svg width="24" height="24" viewBox="0 0 24 24" fill="none" xmlns="http://www.w3.org/2000/svg">
<path d="M20.414 14.4956L19.7505 14.8452V14.8452L20.414 14.4956ZM16.2365 6.56774L16.9001 6.2181V6.2181L16.2365 6.56774ZM7.76346 6.56774L7.09995 6.21811L7.76346 6.56774ZM3.58595 14.4956L4.24947 14.8452L3.58595 14.4956ZM13.2686 2.27099L13.5764 1.58705V1.58705L13.2686 2.27099ZM10.7314 2.27099L11.0392 2.95492L10.7314 2.27099ZM20.7482 20.4929L21.1629 21.1178L20.7482 20.4929ZM21.9801 18.6015L21.239 18.4862L21.9801 18.6015ZM3.25179 20.4929L2.83707 21.1178H2.83707L3.25179 20.4929ZM2.01992 18.6015L2.76099 18.4862L2.01992 18.6015ZM12.75 8.99663C12.7481 8.58243 12.4108 8.24815 11.9966 8.25001C11.5824 8.25187 11.2481 8.58916 11.25 9.00337L12.75 8.99663ZM11.2724 14.0033C11.2743 14.4175 11.6116 14.7518 12.0258 14.7499C12.44 14.748 12.7743 14.4108 12.7724 13.9966L11.2724 14.0033ZM12.75 17C12.75 16.5858 12.4142 16.25 12 16.25C11.5858 16.25 11.25 16.5858 11.25 17H12.75ZM11.25 17.01C11.25 17.4242 11.5858 17.76 12 17.76C12.4142 17.76 12.75 17.4242 12.75 17.01H11.25ZM7.82249 21.75H16.1775V20.25H7.82249V21.75ZM21.0776 14.146L16.9001 6.2181L15.573 6.91737L19.7505 14.8452L21.0776 14.146ZM7.09995 6.21811L2.92243 14.146L4.24947 14.8452L8.42698 6.91738L7.09995 6.21811ZM16.9001 6.2181C16.2254 4.93775 15.6952 3.92994 15.2152 3.19468C14.7394 2.46583 14.2404 1.88588 13.5764 1.58705L12.9608 2.95492C13.2194 3.07128 13.5226 3.34586 13.9592 4.01466C14.3916 4.67706 14.8841 5.61002 15.573 6.91737L16.9001 6.2181ZM8.42698 6.91738C9.11588 5.61002 9.60839 4.67706 10.0408 4.01466C10.4774 3.34586 10.7806 3.07128 11.0392 2.95492L10.4236 1.58705C9.75959 1.88588 9.2606 2.46583 8.78478 3.19468C8.30478 3.92994 7.77462 4.93775 7.09995 6.21811L8.42698 6.91738ZM13.5764 1.58705C12.5778 1.13765 11.4222 1.13765 10.4236 1.58705L11.0392 2.95492C11.6463 2.68169 12.3537 2.68169 12.9608 2.95492L13.5764 1.58705ZM16.1775 21.75C17.4325 21.75 18.4227 21.7507 19.1928 21.6838C19.9602 21.6171 20.6217 21.4769 21.1629 21.1178L20.3335 19.8679C20.1105 20.0159 19.7555 20.1293 19.063 20.1894C18.3732 20.2493 17.4602 20.25 16.1775 20.25V21.75ZM19.7505 14.8452C20.3251 15.9356 20.7303 16.7062 20.9802 17.3135C21.2309 17.9225 21.2751 18.2543 21.239 18.4862L22.7211 18.7169C22.8214 18.0734 22.6499 17.4291 22.3673 16.7425C22.0839 16.054 21.6379 15.2093 21.0776 14.146L19.7505 14.8452ZM21.1629 21.1178C21.9987 20.5631 22.5684 19.6976 22.7211 18.7169L21.239 18.4862C21.1537 19.0342 20.8323 19.5369 20.3335 19.8679L21.1629 21.1178ZM7.82249 20.25C6.53976 20.25 5.62677 20.2493 4.93697 20.1894C4.24447 20.1293 3.88948 20.0159 3.66652 19.8679L2.83707 21.1178C3.37828 21.4769 4.0398 21.6171 4.80718 21.6838C5.57727 21.7507 6.56754 21.75 7.82249 21.75V20.25ZM2.92243 14.146C2.36209 15.2094 1.91612 16.054 1.63271 16.7425C1.35005 17.4291 1.17865 18.0734 1.27885 18.7169L2.76099 18.4862C2.7249 18.2543 2.76907 17.9225 3.01978 17.3135C3.26973 16.7063 3.67493 15.9356 4.24947 14.8452L2.92243 14.146ZM3.66652 19.8679C3.16773 19.5369 2.84633 19.0342 2.76099 18.4862L1.27885 18.7169C1.43155 19.6976 2.0013 20.5631 2.83707 21.1178L3.66652 19.8679ZM11.25 9.00337L11.2724 14.0033L12.7724 13.9966L12.75 8.99663L11.25 9.00337ZM11.25 17V17.01H12.75V17H11.25Z" fill="#0E0E0F"/>
</svg>
