<svg width="24" height="24" viewBox="0 0 24 24" fill="none" xmlns="http://www.w3.org/2000/svg">
<path d="M10.7108 7.46079L9.77412 6.52412C8.83159 5.58159 9.16705 4 10.5 4C12.2949 4 13.9199 4.72754 15.0962 5.90381C16.2725 7.08007 17 8.70507 17 10.5C17 10.83 16.9754 11.1542 16.928 11.471C16.8115 12.2484 16.9726 13.0733 17.5354 13.6221L19.5498 15.586C20.3477 16.364 20.3558 17.6442 19.5678 18.4322L18.4142 19.5858C17.6332 20.3668 16.3668 20.3668 15.5858 19.5858L13.527 17.527C12.9844 16.9844 12.1818 16.8272 11.4221 16.9351C11.1209 16.9779 10.813 17 10.5 17C8.70507 17 7.08007 16.2725 5.90381 15.0962C4.72754 13.9199 4 12.2949 4 10.5C4 9.16705 5.58159 8.83159 6.52412 9.77412L7.46079 10.7108C8.24184 11.4918 9.50816 11.4918 10.2892 10.7108L10.7108 10.2892C11.4918 9.50817 11.4918 8.24184 10.7108 7.46079Z" stroke="#0E0E0F" stroke-width="1.5" stroke-linecap="round"/>
</svg>
