<svg width="101" height="20" viewBox="0 0 101 20" fill="none" xmlns="http://www.w3.org/2000/svg">
  <path d="M3.91648 15.9961H6.6576C7.24162 15.9961 7.84777 15.9271 8.47788 15.7888C9.0769 15.6501 9.62965 15.3736 10.1363 14.9586C10.6278 14.5747 11.0424 14.0137 11.3805 13.2757C11.7032 12.5691 11.8643 11.6238 11.8643 10.4407C11.8643 9.27274 11.7032 8.31998 11.3805 7.58203C11.0424 6.84426 10.6278 6.28344 10.1363 5.899C9.62965 5.49974 9.06867 5.23077 8.45466 5.09243C7.82455 4.95374 7.22608 4.88476 6.6576 4.88476H3.91648C3.71644 4.88476 3.55169 4.95374 3.42096 5.09243C3.2904 5.23077 3.22531 5.39965 3.22531 5.59928V15.2817C3.22531 15.4814 3.2904 15.6501 3.42096 15.7888C3.55169 15.9271 3.71644 15.9961 3.91648 15.9961ZM0.691176 18.8544C0.491503 18.8544 0.326389 18.7854 0.196016 18.6471C0.0652778 18.5091 0 18.3402 0 18.14V2.69469C0 2.49525 0.0652778 2.326 0.196016 2.18766C0.326389 2.04933 0.491503 1.97998 0.691176 1.97998H6.63474C9.04581 1.97998 11.0268 2.68719 12.5783 4.10106C13.4075 4.86975 14.0296 5.77641 14.4443 6.82102C14.8738 7.94323 15.0894 9.14191 15.0894 10.4175C15.0894 11.0939 15.0355 11.7276 14.9281 12.3193C14.8204 12.9113 14.6593 13.4759 14.4443 14.0137C14.0448 15.0741 13.4229 15.9886 12.5783 16.7569C11.7953 17.4637 10.9118 17.9867 9.92916 18.3245C8.91544 18.6782 7.8176 18.8544 6.63474 18.8544H0.691176Z" fill="#0E0E0F"/>
  <path d="M20.6204 5.5533V8.34279C20.6204 8.5426 20.6899 8.71149 20.8282 8.84964C20.9666 8.98815 21.1352 9.0575 21.3347 9.0575H28.0619C28.2611 9.0575 28.4302 9.12648 28.5688 9.265C28.7063 9.40278 28.7761 9.5724 28.7761 9.77203V11.2702C28.7761 11.4704 28.7063 11.6395 28.5688 11.7778C28.4302 11.916 28.2611 11.985 28.0619 11.985H21.3347C21.1352 11.985 20.9666 12.0543 20.8282 12.1926C20.6899 12.331 20.6204 12.5004 20.6204 12.6995V15.2357C20.6204 15.4356 20.6899 15.6046 20.8282 15.7426C20.9666 15.8811 21.1352 15.9501 21.3347 15.9501H29.0981C29.298 15.9501 29.4671 16.0194 29.6048 16.1578C29.7432 16.2961 29.8122 16.4655 29.8122 16.665V18.1401C29.8122 18.3403 29.7432 18.5094 29.6048 18.6474C29.4671 18.7855 29.298 18.8545 29.0981 18.8545H18.1099C17.9099 18.8545 17.7413 18.7855 17.6029 18.6474C17.4644 18.5094 17.3955 18.3403 17.3955 18.1401V2.69482C17.3955 2.49537 17.4644 2.32594 17.6029 2.1876C17.7413 2.04946 17.9099 1.98011 18.1099 1.98011H29.0981C29.298 1.98011 29.4671 2.04946 29.6048 2.1876C29.7432 2.32594 29.8122 2.49537 29.8122 2.69482V4.12406C29.8122 4.32387 29.7432 4.49294 29.6048 4.63127C29.4671 4.76978 29.298 4.83877 29.0981 4.83877H21.3347C21.1352 4.83877 20.9666 4.90793 20.8282 5.04608C20.6899 5.18459 20.6204 5.35367 20.6204 5.5533Z" fill="#0E0E0F"/>
  <path d="M38.2597 13.3911H41.6693C41.8683 13.3911 42.003 13.3262 42.0721 13.1954C42.1416 13.0649 42.1374 12.915 42.061 12.7458L40.2636 8.94204C40.1869 8.75742 40.0871 8.66538 39.9642 8.66538C39.841 8.66538 39.7415 8.75742 39.6651 8.94204L37.8448 12.7458C37.7682 12.93 37.7682 13.0837 37.8448 13.2067C37.9218 13.33 38.06 13.3911 38.2597 13.3911ZM31.5099 18.2322L39.5042 2.2564C39.5958 2.07233 39.7494 1.97992 39.9642 1.97992C40.1789 1.97992 40.3329 2.07233 40.425 2.2564L48.4191 18.2322C48.511 18.402 48.5226 18.5475 48.4536 18.6708C48.3847 18.7936 48.2496 18.8543 48.0501 18.8543H45.9541C45.7544 18.8543 45.5543 18.7936 45.3552 18.6708C45.1552 18.5475 45.0169 18.3938 44.9401 18.2093L44.2493 16.8262C44.1572 16.6573 44.0151 16.5111 43.8233 16.3881C43.6306 16.2652 43.4351 16.2041 43.2356 16.2041H36.6928C36.4934 16.2041 36.2939 16.2652 36.0942 16.3881C35.8943 16.5111 35.7565 16.6648 35.6795 16.8491L35.0114 18.2093C34.9194 18.3938 34.7769 18.5475 34.5855 18.6708C34.3931 18.7936 34.1973 18.8543 33.9978 18.8543H31.9018C31.7016 18.8543 31.5674 18.7936 31.4982 18.6708C31.4293 18.5475 31.433 18.402 31.5099 18.2322Z" fill="#0E0E0F"/>
  <path d="M82.3105 16.711V18.1402C82.3105 18.3402 82.2419 18.5093 82.1033 18.6472C81.9654 18.7856 81.7956 18.8546 81.5965 18.8546H70.8843C70.6846 18.8546 70.5155 18.7856 70.3775 18.6472C70.239 18.5093 70.1699 18.3402 70.1699 18.1402V2.6947C70.1699 2.49544 70.239 2.326 70.3775 2.18766C70.5155 2.04933 70.6846 1.97999 70.8843 1.97999H72.6816C72.8807 1.97999 73.05 2.04933 73.1875 2.18766C73.3265 2.326 73.3954 2.49544 73.3954 2.6947V15.2817C73.3954 15.4815 73.4643 15.6502 73.6028 15.7889C73.7408 15.9273 73.91 15.9963 74.1096 15.9963H81.5965C81.7956 15.9963 81.9654 16.0656 82.1033 16.2041C82.2419 16.3421 82.3105 16.5112 82.3105 16.711Z" fill="#0E0E0F"/>
  <path d="M91.6022 4.7799C90.8359 4.7799 90.1191 4.93781 89.4519 5.25272C88.7859 5.56762 88.2032 5.98682 87.7055 6.50886C87.207 7.03181 86.8126 7.64277 86.521 8.34193C86.2304 9.04127 86.0847 9.76751 86.0847 10.5201C86.0847 11.289 86.2304 12.0189 86.521 12.7103C86.8126 13.4022 87.207 14.0126 87.7055 14.5429C88.2032 15.0733 88.7859 15.4964 89.4519 15.8113C90.1191 16.1262 90.8359 16.2837 91.6022 16.2837C92.3682 16.2837 93.0846 16.1262 93.7512 15.8113C94.4181 15.4964 95.0001 15.0733 95.4988 14.5429C95.9967 14.0126 96.3912 13.4022 96.6827 12.7103C96.9738 12.0189 97.1199 11.289 97.1199 10.5201C97.1199 9.76751 96.9738 9.04127 96.6827 8.34193C96.3912 7.64277 95.9967 7.03181 95.4988 6.50886C95.0001 5.98682 94.4181 5.56762 93.7512 5.25272C93.0846 4.93781 92.3682 4.7799 91.6022 4.7799ZM91.5905 19.2803C90.3925 19.2803 89.2637 19.0498 88.2041 18.5889C87.1445 18.1278 86.2189 17.502 85.4284 16.71C84.6371 15.9189 84.0115 14.9928 83.5509 13.9323C83.0903 12.8719 82.8594 11.7343 82.8594 10.5201C82.8594 9.32141 83.0903 8.18823 83.5509 7.12C84.0115 6.05178 84.6371 5.12225 85.4284 4.33051C86.2189 3.53913 87.1445 2.91298 88.2041 2.45151C89.2637 1.99059 90.3925 1.76022 91.5905 1.76022C92.8037 1.76022 93.9405 1.99059 94.9998 2.45151C96.0594 2.91298 96.9848 3.53913 97.7758 4.33051C98.567 5.12225 99.1931 6.05178 99.6537 7.12C100.114 8.18823 100.345 9.32141 100.345 10.5201C100.345 11.7343 100.114 12.8719 99.6537 13.9323C99.1931 14.9928 98.567 15.9189 97.7758 16.71C96.9848 17.502 96.0594 18.1278 94.9998 18.5889C93.9405 19.0498 92.8037 19.2803 91.5905 19.2803Z" fill="#0E0E0F"/>
  <path d="M53.9326 1.07369L55.4965 3.54498C56.392 3.09102 57.3971 2.83796 58.4598 2.83796C59.5123 2.83796 60.5085 3.08699 61.3971 3.53291L62.9706 1.00763C61.6253 0.362634 60.1144 -2.55108e-05 58.5171 -2.55108e-05C56.867 -2.55108e-05 55.3102 0.388252 53.9326 1.07369Z" fill="#0E0E0F"/>
  <path d="M62.9761 4.63556L62.9731 4.63354C63.5067 5.13326 63.9638 5.72208 64.3251 6.38007H68.001C67.3012 4.61031 66.1057 3.08409 64.5797 1.96921L62.9761 4.63556Z" fill="#0E0E0F"/>
  <path d="M48.3433 10.0001C48.3433 13.189 49.864 16.027 52.2294 17.8578L53.9025 15.3181C52.5371 14.0188 51.6803 12.1316 51.6803 9.99566C51.6803 7.85299 52.543 5.96082 53.9158 4.66113L52.2771 2.10457C49.8843 3.93416 48.3433 6.78935 48.3433 10.0001Z" fill="#0E0E0F"/>
  <path d="M56.0767 10.2018C56.0767 11.6478 57.2725 12.82 58.7476 12.82C59.7276 12.82 60.5841 12.302 61.0486 11.5304V11.556H65.0806C64.7626 13.1007 63.9802 14.4434 62.8981 15.4265L62.8992 15.4269L64.6869 17.95C67.1201 16.1226 68.414 13.2379 68.414 9.99573C68.414 9.66088 68.416 9.33445 68.3831 9.0082H65.1749C65.176 9.01478 65.1773 9.02137 65.1777 9.02814H61.1349C60.6958 8.17181 59.7918 7.58353 58.7476 7.58353C57.2725 7.58353 56.0767 8.75587 56.0767 10.2018Z" fill="#0E0E0F"/>
  <path d="M53.958 18.9391C55.3299 19.6167 56.8776 20 58.5174 20C60.0866 20 61.5726 19.6503 62.9 19.0266L61.3273 16.4941L61.3278 16.4932C60.4569 16.9177 59.4852 17.1534 58.4602 17.1534C57.3738 17.1534 56.348 16.8877 55.4378 16.4147L53.958 18.9391Z" fill="#0E0E0F"/>
</svg>
  